<svg xmlns="http://www.w3.org/2000/svg" xmlns:xlink="http://www.w3.org/1999/xlink" style="margin:auto;background:rgba(255, 255, 255, 0.1);display:block;z-index:1;position:relative" width="1084" height="322" preserveAspectRatio="xMidYMid" viewBox="0 0 1084 322">
  <defs>
    <pattern id="pid-0.exaggerated" x="0" y="0" width="1084" height="322" patternUnits="userSpaceOnUse">
      <g transform="scale(4.23)">
        <path d="M -256 20 C -192 20 -192 -20 -128 -20 C -64 -20 -64 20 0 20 C 64 20 64 -20 128 -20 C 192 -20 192 20 256 20 L 384 384 L -384 384 L -384 20 Z" fill="none" stroke="#ff6b6b" stroke-width="8" transform="translate(0 -76)">
          <animateTransform attributeName="transform" type="translate" values="256 -76;0 -76;256 -76" keyTimes="0;0.5;1" dur="10s" repeatCount="indefinite" calcMode="spline" keySplines="0.5 0 0.5 1;0.5 0 0.5 1"/>
        </path>
        <path d="M -256 20 C -192 20 -192 -20 -128 -20 C -64 -20 -64 20 0 20 C 64 20 64 -20 128 -20 C 192 -20 192 20 256 20 L 384 384 L -384 384 L -384 20 Z" fill="none" stroke="#4ecdc4" stroke-width="8" transform="translate(0 -38)">
          <animateTransform attributeName="transform" type="translate" values="0 -38;256 -38;0 -38" keyTimes="0;0.5;1" dur="8s" repeatCount="indefinite" calcMode="spline" keySplines="0.5 0 0.5 1;0.5 0 0.5 1"/>
        </path>
        <path d="M -256 20 C -192 20 -192 -20 -128 -20 C -64 -20 -64 20 0 20 C 64 20 64 -20 128 -20 C 192 -20 192 20 256 20 L 384 384 L -384 384 L -384 20 Z" fill="none" stroke="#45b7d1" stroke-width="8" transform="translate(0 0)">
          <animateTransform attributeName="transform" type="translate" values="256 0;0 0;256 0" keyTimes="0;0.5;1" dur="12s" repeatCount="indefinite" calcMode="spline" keySplines="0.5 0 0.5 1;0.5 0 0.5 1"/>
        </path>
        <path d="M -256 20 C -192 20 -192 -20 -128 -20 C -64 -20 -64 20 0 20 C 64 20 64 -20 128 -20 C 192 -20 192 20 256 20 L 384 384 L -384 384 L -384 20 Z" fill="none" stroke="#f9d56e" stroke-width="8" transform="translate(0 38)">
          <animateTransform attributeName="transform" type="translate" values="0 38;256 38;0 38" keyTimes="0;0.5;1" dur="15s" repeatCount="indefinite" calcMode="spline" keySplines="0.5 0 0.5 1;0.5 0 0.5 1"/>
        </path>
        <path d="M -256 20 C -192 20 -192 -20 -128 -20 C -64 -20 -64 20 0 20 C 64 20 64 -20 128 -20 C 192 -20 192 20 256 20 L 384 384 L -384 384 L -384 20 Z" fill="none" stroke="#ff8c42" stroke-width="8" transform="translate(0 76)">
          <animateTransform attributeName="transform" type="translate" values="256 76;0 76;256 76" keyTimes="0;0.5;1" dur="7s" repeatCount="indefinite" calcMode="spline" keySplines="0.5 0 0.5 1;0.5 0 0.5 1"/>
        </path>
      </g>
    </pattern>
  </defs>
  <rect x="0" y="0" width="1084" height="322" fill="url(#pid-0.exaggerated)"></rect>
</svg>